<svg xmlns="http://www.w3.org/2000/svg" xmlns:bx="https://boxy-svg.com" viewBox="270 30 430 440"><path bx:origin="0.570682 0.745473" d="m209.5 265.4-47.3-19.7 7-100.5S151.6 72.2 154 71c32.8-14.9 54.3 18.7 106.3 25.7 3.7.5-7.3 59.3-2.2 147.2 1 17.7-48.6 21.4-48.6 21.4Z" style="stroke:#000;fill:#6e4a7e" transform="translate(284.5 35.5)"/><path bx:origin="0.524718 -0.162282" d="M287.8 421H133.4s-5.6-15.6 0-17.6a159 159 0 0 0 61.3-42.4l-2-76.8s-34-9.2-31.7-40.2c.1-2.8 26.8 19.6 48.4 20.5 26.4 1.1 48.8-20.2 49.6-18.6 9.9 21.3-31.7 38.5-31.7 38.5l1.3 76.5s25.3 31 60.5 42.9c5.4 1.8-1.3 18.8-1.3 17.2v-.1Z" style="stroke:#000;fill:#b7410e" transform="translate(284.5 35.5)"/><path bx:origin="0.523058 0.501184" d="m517.3 394.5-.2-69.7c10-.8 18-11.6 23.4-17.7a35.5 35.5 0 0 0 7.7-26l-.7-5.6v-.8h-.1c-2.8-27.6-4-55.3-3.6-83 0-63.2 30.3-139.8 30.6-140.6h-.1c.3-.8.5-1.5.5-2.4 0-3.7 0-11.5-77.3-11.5h-1.8c-79 .2-79 8-79 11.8 0 .6 0 1.3.3 2 .3.8 30.7 77.5 30.7 140.6 0 44.8-2.2 70.7-3.6 82.4v.6c-.5 4.4-1 6.6-1 6.8 0 .6-1.6 15 7.8 25.7 6 6.4 14.2 17.5 23 17.7l.2 69.7c-4.6 6.6-29.2 39.6-55.4 39.6h-4.8v28.7h163.6v-28.7h-4.7c-26.2 0-50.8-33-55.5-39.6ZM495.7 46.7h1.8c22.7 0 40.3.9 52 2a535.3 535.3 0 0 1-53.8 2.3h-1.8c-22.7 0-40.3-.9-52-2 12.4-1.3 30.9-2.3 53.8-2.3Zm-66.4 10.1c10.4 2.1 29.5 3.7 64.6 3.7h1.9c20 0 38.8-.8 53-2.2 5.4-.5 9.9-1 13.4-1.7-8.2 22.5-28 82.4-28 135 0 46.6 2.4 72.8 3.8 84.1-1.3 9.8-17.7 19.7-41.7 19.7h-.7c-24.5-.2-41.1-10.6-42-20.5 1.3-11.8 3.5-38 3.5-83.3 0-52.5-19.6-112.2-27.8-134.8ZM568 453.3H423.5v-10c32-3.7 58.3-43 59.4-44.7l.8-1.2-.3-75.8-4.7-6c-9.4 0-16.2-9.9-20.5-14.8-2.5-2.7-4-6-4.7-9 12.2 9 27 13.5 42.2 13h.6a67 67 0 0 0 41.6-12.3 21 21 0 0 1-4.4 8.3c-4.4 4.9-11.6 14.7-21 14.7l-4.9 6 .3 76 .8 1.2c1.2 1.7 27.5 41 59.4 44.7v10l-.1-.1Z"/></svg>